<?xml version="1.0" standalone="no"?>
<!DOCTYPE svg PUBLIC "-//W3C//DTD SVG 20010904//EN"
 "http://www.w3.org/TR/2001/REC-SVG-20010904/DTD/svg10.dtd">
<svg version="1.0" xmlns="http://www.w3.org/2000/svg"
 width="226.000000pt" height="312.000000pt" viewBox="0 0 226.000000 312.000000"
 preserveAspectRatio="xMidYMid meet">
<metadata>
Created by potrace 1.13, written by Peter Selinger 2001-2015
</metadata>
<g transform="translate(0.000000,312.000000) scale(0.100000,-0.100000)"
fill="#000000" stroke="none">
<path d="M1085 3106 c-115 -23 -213 -63 -355 -144 -110 -62 -180 -132 -195
-195 -4 -13 -18 -30 -32 -38 -35 -19 -69 -84 -84 -159 -11 -61 -16 -69 -91
-147 -447 -469 -433 -1207 31 -1658 40 -39 41 -40 42 -115 2 -139 -9 -125 184
-213 117 -53 195 -77 255 -77 28 0 30 -4 50 -72 72 -247 74 -252 147 -267 87
-18 286 -25 393 -12 121 14 144 29 148 98 3 49 4 51 36 57 19 4 46 16 60 27
31 24 33 61 11 154 -21 86 -19 122 5 135 12 6 25 22 30 35 17 46 137 61 178
23 21 -21 34 -23 115 -23 140 1 179 32 206 165 10 47 9 66 -8 132 -26 100 -58
174 -86 196 l-23 18 39 81 c76 158 111 319 111 509 0 294 -95 542 -295 777
-55 64 -67 84 -67 113 0 65 -31 189 -67 263 -27 57 -55 93 -122 161 -94 94
-165 136 -276 165 -85 22 -254 28 -340 11z m330 -87 c116 -36 177 -72 245
-146 88 -96 90 -103 40 -103 -42 0 -80 -26 -80 -56 0 -11 6 -14 22 -8 95 30
178 -36 198 -158 19 -109 8 -381 -19 -483 -24 -93 -94 -239 -148 -310 -101
-131 -312 -199 -454 -146 -103 39 -173 100 -291 251 l-27 35 9 -34 c16 -60
102 -169 179 -227 l44 -34 -39 0 c-22 0 -50 -7 -63 -16 -42 -30 -186 -4 -242
43 -37 32 -99 155 -124 247 l-18 66 28 39 c35 51 25 69 -21 41 -51 -29 -96
-26 -138 10 -71 63 -99 187 -57 256 20 34 75 64 114 64 35 0 75 -37 91 -85 12
-35 18 -40 48 -43 18 -2 41 3 52 11 18 13 18 16 0 97 -16 75 -16 91 -4 164 8
45 15 126 15 181 1 88 4 105 23 132 55 78 234 203 330 230 64 18 199 10 287
-18z m-487 -41 c-3 -7 -42 -32 -88 -57 -46 -26 -109 -69 -140 -98 -55 -51
-110 -77 -110 -54 0 21 87 105 144 139 58 36 162 81 184 82 8 0 12 -5 10 -12z
m-195 -257 c4 -16 -3 -21 -44 -31 -119 -29 -189 -117 -189 -237 0 -35 -4 -63
-10 -63 -14 0 -13 149 1 191 26 77 118 140 230 158 4 1 9 -8 12 -18z m769
-1403 l47 -23 1 -55 c0 -71 -18 -228 -29 -247 -5 -11 -23 20 -59 102 -28 64
-65 136 -81 160 -22 32 -27 47 -18 52 10 7 65 27 87 32 3 1 26 -9 52 -21z
m185 -43 l28 -24 -29 -53 c-38 -70 -128 -210 -132 -206 -1 2 1 21 6 43 5 22
12 83 16 135 4 52 11 103 16 113 13 25 62 21 95 -8z m-339 -63 c35 -54 116
-231 109 -238 -7 -7 -123 39 -214 85 -88 44 -89 46 -55 99 15 23 110 102 123
102 4 0 21 -21 37 -48z m742 -260 c30 -30 40 -59 67 -187 16 -78 16 -81 -5
-128 -26 -59 -63 -77 -159 -77 -74 0 -72 14 5 26 81 12 53 24 -56 24 l-110 0
-6 68 c-4 37 -12 96 -18 130 -8 52 -8 67 4 78 18 18 196 91 226 93 14 1 36
-11 52 -27z m-621 -97 c9 -9 19 -141 42 -545 5 -96 10 -184 12 -195 2 -17 -7
-22 -53 -32 -119 -25 -428 -7 -463 26 -4 4 -21 55 -38 112 -62 217 -124 593
-100 608 7 5 54 14 104 20 51 7 99 14 107 16 35 8 380 -1 389 -10z m294 -44
c10 -30 21 -89 24 -132 6 -78 6 -78 -21 -89 -15 -5 -33 -10 -39 -10 -8 0 -18
46 -30 128 -23 170 -24 164 16 160 29 -3 34 -8 50 -57z m-138 -438 c22 -123
20 -135 -28 -147 -20 -5 -40 -7 -43 -3 -4 3 -9 58 -12 121 l-5 114 29 5 c16 2
32 5 35 6 3 0 14 -43 24 -96z"/>
<path d="M1251 2515 c0 -16 11 -52 24 -80 14 -27 25 -54 25 -58 0 -5 -30 -7
-67 -5 -64 3 -68 2 -71 -19 -4 -28 29 -43 94 -43 87 0 121 55 69 110 -14 14
-36 48 -49 75 -23 47 -25 48 -25 20z"/>
<path d="M1500 2473 c0 -55 38 -127 114 -221 55 -68 67 -88 64 -113 -3 -27
-11 -34 -73 -62 -46 -20 -87 -31 -119 -31 -49 -1 -57 4 -71 49 -5 16 -8 17
-15 5 -14 -22 -12 -53 6 -78 12 -17 25 -22 59 -22 57 0 158 33 217 70 41 26
47 34 53 73 7 43 5 46 -40 93 -68 71 -134 162 -162 222 -14 28 -26 52 -29 52
-2 0 -4 -17 -4 -37z"/>
<path d="M1260 1970 c20 -38 114 -73 208 -78 77 -4 82 -3 82 16 0 47 -8 52
-85 52 -66 0 -151 11 -198 26 -17 5 -17 3 -7 -16z"/>
<path d="M1207 1924 c-8 -8 78 -120 107 -139 55 -36 207 -30 253 9 l27 23
-120 5 c-137 6 -178 20 -220 72 -30 37 -36 41 -47 30z"/>
</g>
</svg>
